# 3ds Max Wavefront OBJ Exporter v0.97b - (c)2007 guruware
# File Created: 02.09.2017 14:57:16

mtllib Rock.mtl

#
# object Sphere001
#

v  1055.1704 -15.3627 -1215.7834
v  1083.8137 97.4356 -1248.2902
v  1144.2566 75.8162 -1188.0736
v  961.7612 74.9515 -1228.6886
v  941.5180 153.5428 -1142.8406
v  994.3088 153.5428 -1218.1017
v  1108.5355 -14.9027 -1131.8634
v  1023.7261 214.5415 -1079.1206
v  958.2109 75.3939 -1069.7634
v  1037.0964 53.7704 -1037.2637
v  1109.4442 154.0883 -1192.4779
v  1057.1837 146.7531 -1229.1353
v  1076.7384 166.5601 -1088.4236
v  1115.6779 54.0047 -1067.7765
v  958.4196 -3.3073 -1165.3011
v  1040.0068 -18.1136 -1147.0602
v  969.4522 -3.0814 -1102.4261
v  1042.0161 53.1574 -1257.4889
v  995.0775 -3.3073 -1217.5625
v  936.6438 97.2366 -1107.7246
v  1021.7128 -2.7618 -1065.7688
v  1140.1014 98.0838 -1103.0555
v  1120.4769 154.3143 -1129.6028
# 23 vertices

vn 0.5979 -0.3312 -0.7300
vn -0.7652 0.3563 -0.5368
vn 0.7230 -0.5191 -0.4563
vn -0.3228 0.1958 0.9259
vn 0.1498 0.8993 -0.4111
vn 0.3485 0.2609 0.9000
vn -0.2026 -0.9783 0.0397
vn -0.0830 -0.4955 -0.8643
vn -0.9665 -0.1911 0.1704
vn -0.9799 -0.0341 -0.1965
vn 0.2811 -0.6374 0.7180
vn 0.0055 -0.9791 0.2036
vn 0.7305 0.2647 -0.6295
vn 0.6784 0.4624 0.5702
vn 0.4497 0.4879 -0.7482
vn -0.2716 0.2187 -0.9374
vn -0.4427 0.8417 -0.3105
vn -0.7351 0.3522 0.5795
vn -0.9781 -0.0972 -0.1834
vn -0.3948 -0.2676 -0.8787
vn 0.0584 -0.9978 -0.0306
vn -0.2105 -0.9733 -0.0889
vn -0.4368 -0.2848 0.8533
vn 0.4914 -0.4630 0.7382
vn 0.9563 0.2893 -0.0363
vn 0.9541 -0.2732 0.1248
vn 0.6497 0.5666 0.5058
vn 0.3942 0.2407 0.8867
vn 0.5511 -0.3300 -0.7665
vn -0.1237 0.2874 -0.9500
vn -0.1352 0.2720 -0.9529
vn 0.0290 0.8988 -0.4378
vn 0.5252 0.8452 -0.0958
vn 0.9168 0.3643 -0.1624
vn -0.5338 -0.3610 0.7647
vn -0.1162 -0.9775 0.1759
vn -0.6561 0.4126 0.6321
vn -0.8942 -0.3331 0.2984
vn 0.9255 -0.2930 0.2410
vn 0.5388 0.3020 0.7861
vn -0.1675 -0.9786 -0.1175
vn -0.7617 -0.3656 -0.5343
# 42 vertex normals

g Sphere001
usemtl 07___Default
s off
f -23//-42 -22//-42 -21//-42 
f -20//-41 -19//-41 -18//-41 
f -21//-40 -17//-40 -23//-40 
f -16//-39 -15//-39 -14//-39 
f -13//-38 -12//-38 -16//-38 
f -11//-37 -14//-37 -10//-37 
f -9//-36 -8//-36 -7//-36 
f -6//-35 -23//-35 -5//-35 
f -7//-34 -15//-34 -9//-34 
f -19//-33 -20//-33 -4//-33 
f -17//-32 -10//-32 -14//-32 
f -17//-31 -3//-31 -8//-31 
f -13//-30 -21//-30 -22//-30 
f -2//-29 -1//-29 -11//-29 
f -22//-28 -12//-28 -13//-28 
f -18//-27 -6//-27 -20//-27 
f -18//-26 -19//-26 -16//-26 
f -15//-25 -16//-25 -19//-25 
f -9//-24 -4//-24 -20//-24 
f -5//-23 -20//-23 -6//-23 
f -23//-22 -17//-22 -8//-22 
f -8//-21 -5//-21 -23//-21 
f -3//-20 -14//-20 -15//-20 
f -14//-19 -3//-19 -17//-19 
f -1//-18 -2//-18 -21//-18 
f -17//-17 -21//-17 -2//-17 
f -11//-16 -1//-16 -16//-16 
f -16//-15 -14//-15 -11//-15 
f -23//-14 -6//-14 -22//-14 
f -6//-13 -18//-13 -22//-13 
f -12//-12 -22//-12 -18//-12 
f -12//-11 -18//-11 -16//-11 
f -16//-10 -1//-10 -13//-10 
f -21//-9 -13//-9 -1//-9 
f -15//-8 -7//-8 -3//-8 
f -8//-7 -3//-7 -7//-7 
f -19//-6 -4//-6 -15//-6 
f -4//-5 -9//-5 -15//-5 
f -17//-4 -2//-4 -10//-4 
f -10//-3 -2//-3 -11//-3 
f -8//-2 -9//-2 -5//-2 
f -20//-1 -5//-1 -9//-1 
# 0 polygons - 42 triangles

#
# object Sphere002
#

v  1333.8939 -31.2430 -1168.5149
v  1309.9291 120.4409 -1115.4100
v  1208.4359 91.3685 -1168.9125
v  1459.0557 90.2057 -1188.8546
v  1451.1366 195.8902 -1307.1991
v  1413.0365 195.8902 -1189.5953
v  1232.1272 -30.6245 -1255.2816
v  1320.2834 234.3436 -1356.6001
v  1400.7916 90.8005 -1394.5269
v  1286.5511 61.7226 -1405.1139
v  1254.9218 196.6237 -1177.0139
v  1336.5846 186.7599 -1150.5576
v  1255.8235 213.3951 -1323.6858
v  1197.6119 62.0378 -1334.8300
v  1438.2921 -15.0318 -1271.6486
v  1326.2158 -34.9423 -1262.8402
v  1399.2555 -14.7279 -1348.1012
v  1367.2886 60.8984 -1120.1105
v  1411.8354 -15.0318 -1189.9845
v  1443.5193 120.1732 -1354.2610
v  1317.5928 -14.2982 -1374.5575
v  1180.1666 121.3125 -1279.8301
v  1215.8851 196.9276 -1253.4666
# 23 vertices

vn -0.3569 -0.3312 0.8735
vn 0.8892 0.3563 0.2881
vn -0.5569 -0.5191 0.6487
vn 0.0217 0.2451 -0.9692
vn 0.0505 0.9693 0.2410
vn -0.5977 0.2609 -0.7578
vn 0.1819 -0.9783 -0.0975
vn 0.3334 -0.4955 0.8017
vn 0.8737 -0.1911 -0.4470
vn 0.9944 -0.0341 -0.1002
vn -0.4797 -0.6374 -0.6036
vn -0.0651 -0.9791 -0.1930
vn -0.5132 0.2647 0.8164
vn -0.8161 0.4624 -0.3455
vn -0.2098 0.4879 0.8474
vn 0.5352 0.2187 0.8161
vn 0.2746 0.9577 0.0890
vn 0.4354 0.4162 -0.7984
vn 0.9888 -0.0972 -0.1122
vn 0.6357 -0.2676 0.7238
vn -0.0468 -0.9978 0.0464
vn 0.2273 -0.9733 0.0231
vn 0.1666 -0.2848 -0.9440
vn -0.6867 -0.4630 -0.5612
vn -0.9034 0.2893 0.3158
vn -0.9486 -0.2732 0.1612
vn -0.3003 0.9508 0.0729
vn -0.5159 0.2982 -0.8028
vn -0.3014 -0.3300 0.8946
vn 0.3975 0.2874 0.8716
vn 0.4094 0.2720 0.8711
vn -0.0011 0.9696 0.2451
vn -0.2469 0.9600 0.1306
vn -0.8285 0.3643 0.4248
vn 0.2854 -0.3610 -0.8878
vn 0.0594 -0.9775 -0.2023
vn 0.4413 0.4126 -0.7970
vn 0.7670 -0.3331 -0.5481
vn -0.9555 -0.2930 0.0418
vn -0.7461 0.3020 -0.5930
vn 0.1946 -0.9786 0.0631
vn 0.8851 -0.3656 0.2867
# 42 vertex normals

g Sphere002
usemtl 08___Default
s off
f -23//-42 -22//-42 -21//-42 
f -20//-41 -19//-41 -18//-41 
f -21//-40 -17//-40 -23//-40 
f -16//-39 -15//-39 -14//-39 
f -13//-38 -12//-38 -16//-38 
f -11//-37 -14//-37 -10//-37 
f -9//-36 -8//-36 -7//-36 
f -6//-35 -23//-35 -5//-35 
f -7//-34 -15//-34 -9//-34 
f -19//-33 -20//-33 -4//-33 
f -17//-32 -10//-32 -14//-32 
f -17//-31 -3//-31 -8//-31 
f -13//-30 -21//-30 -22//-30 
f -2//-29 -1//-29 -11//-29 
f -22//-28 -12//-28 -13//-28 
f -18//-27 -6//-27 -20//-27 
f -18//-26 -19//-26 -16//-26 
f -15//-25 -16//-25 -19//-25 
f -9//-24 -4//-24 -20//-24 
f -5//-23 -20//-23 -6//-23 
f -23//-22 -17//-22 -8//-22 
f -8//-21 -5//-21 -23//-21 
f -3//-20 -14//-20 -15//-20 
f -14//-19 -3//-19 -17//-19 
f -1//-18 -2//-18 -21//-18 
f -17//-17 -21//-17 -2//-17 
f -11//-16 -1//-16 -16//-16 
f -16//-15 -14//-15 -11//-15 
f -23//-14 -6//-14 -22//-14 
f -6//-13 -18//-13 -22//-13 
f -12//-12 -22//-12 -18//-12 
f -12//-11 -18//-11 -16//-11 
f -16//-10 -1//-10 -13//-10 
f -21//-9 -13//-9 -1//-9 
f -15//-8 -7//-8 -3//-8 
f -8//-7 -3//-7 -7//-7 
f -19//-6 -4//-6 -15//-6 
f -4//-5 -9//-5 -15//-5 
f -17//-4 -2//-4 -10//-4 
f -10//-3 -2//-3 -11//-3 
f -8//-2 -9//-2 -5//-2 
f -20//-1 -5//-1 -9//-1 
# 0 polygons - 42 triangles

#
# object Sphere003
#

v  1196.9270 71.4633 -703.8431
v  1325.8566 151.8412 -646.2324
v  1280.6473 223.5867 -728.7994
v  1348.5481 -12.8008 -676.6479
v  1466.8218 -3.1982 -782.2719
v  1437.0494 60.9366 -680.8688
v  1185.4595 144.1028 -815.5450
v  1477.4011 116.7489 -863.1575
v  1368.4647 -9.6065 -889.4606
v  1312.6888 84.4751 -934.6958
v  1394.2112 210.0724 -713.7709
v  1401.7766 138.3475 -666.1856
v  1435.0692 178.0703 -851.9781
v  1277.8623 183.9200 -892.8874
v  1257.0363 -45.4153 -771.1083
v  1207.2748 54.1835 -796.3864
v  1259.9661 -28.1765 -855.1511
v  1285.0900 80.0486 -639.7976
v  1236.3623 -0.8801 -700.6940
v  1400.7933 -30.3321 -836.2153
v  1243.4354 40.7381 -903.5912
v  1320.3647 231.2265 -839.9870
v  1397.1410 227.3112 -797.8138
# 23 vertices

vn -0.5553 0.4458 0.7021
vn 0.5230 -0.6429 0.5602
vn -0.7483 0.5189 0.4137
vn 0.4017 -0.1860 -0.8966
vn 0.8938 0.3016 0.3322
vn 0.2189 0.4421 -0.8696
vn -0.8656 -0.4833 -0.1300
vn -0.5185 -0.2574 0.8151
vn 0.1225 -0.9729 -0.1954
vn 0.2450 -0.9519 0.1841
vn -0.6298 0.1037 -0.7703
vn -0.9150 -0.2792 -0.2915
vn -0.0203 0.7534 0.6572
vn 0.2838 0.8051 -0.5200
vn 0.2661 0.5478 0.7932
vn 0.2106 -0.2272 0.9510
vn 0.9671 0.0539 0.2498
vn 0.6439 -0.4744 -0.6004
vn 0.1855 -0.9686 0.1653
vn -0.2096 -0.4875 0.8473
vn -0.9683 -0.2426 -0.0594
vn -0.8693 -0.4939 -0.0015
vn -0.0681 -0.4712 -0.8794
vn -0.5254 0.3570 -0.7729
vn -0.0149 0.9972 0.0707
vn -0.5352 0.8332 -0.1408
vn 0.8126 0.5781 0.0703
vn 0.2834 0.3666 -0.8859
vn -0.5431 0.4002 0.7382
vn 0.2306 -0.0660 0.9710
vn 0.2191 -0.0817 0.9724
vn 0.8798 0.3502 0.3215
vn 0.8256 0.5459 0.1414
vn 0.0577 0.9773 0.2027
vn -0.1189 -0.5896 -0.7989
vn -0.8793 -0.3958 -0.2648
vn 0.6418 -0.4806 -0.5977
vn -0.0234 -0.9417 -0.3352
vn -0.5358 0.8042 -0.2585
vn 0.1913 0.6318 -0.7508
vn -0.8896 -0.4555 0.0269
vn -0.1639 -0.8545 0.4923
# 42 vertex normals

g Sphere003
usemtl 08___Default
s off
f -23//-42 -22//-42 -21//-42 
f -20//-41 -19//-41 -18//-41 
f -21//-40 -17//-40 -23//-40 
f -16//-39 -15//-39 -14//-39 
f -13//-38 -12//-38 -16//-38 
f -11//-37 -14//-37 -10//-37 
f -9//-36 -8//-36 -7//-36 
f -6//-35 -23//-35 -5//-35 
f -7//-34 -15//-34 -9//-34 
f -19//-33 -20//-33 -4//-33 
f -17//-32 -10//-32 -14//-32 
f -17//-31 -3//-31 -8//-31 
f -13//-30 -21//-30 -22//-30 
f -2//-29 -1//-29 -11//-29 
f -22//-28 -12//-28 -13//-28 
f -18//-27 -6//-27 -20//-27 
f -18//-26 -19//-26 -16//-26 
f -15//-25 -16//-25 -19//-25 
f -9//-24 -4//-24 -20//-24 
f -5//-23 -20//-23 -6//-23 
f -23//-22 -17//-22 -8//-22 
f -8//-21 -5//-21 -23//-21 
f -3//-20 -14//-20 -15//-20 
f -14//-19 -3//-19 -17//-19 
f -1//-18 -2//-18 -21//-18 
f -17//-17 -21//-17 -2//-17 
f -11//-16 -1//-16 -16//-16 
f -16//-15 -14//-15 -11//-15 
f -23//-14 -6//-14 -22//-14 
f -6//-13 -18//-13 -22//-13 
f -12//-12 -22//-12 -18//-12 
f -12//-11 -18//-11 -16//-11 
f -16//-10 -1//-10 -13//-10 
f -21//-9 -13//-9 -1//-9 
f -15//-8 -7//-8 -3//-8 
f -8//-7 -3//-7 -7//-7 
f -19//-6 -4//-6 -15//-6 
f -4//-5 -9//-5 -15//-5 
f -17//-4 -2//-4 -10//-4 
f -10//-3 -2//-3 -11//-3 
f -8//-2 -9//-2 -5//-2 
f -20//-1 -5//-1 -9//-1 
# 0 polygons - 42 triangles

